<?xml version="1.0" encoding="UTF-8" standalone="no"?><!DOCTYPE svg PUBLIC "-//W3C//DTD SVG 1.1//EN" "http://www.w3.org/Graphics/SVG/1.1/DTD/svg11.dtd"><svg width="100%" height="100%" viewBox="0 0 147 96" version="1.1" xmlns="http://www.w3.org/2000/svg" xmlns:xlink="http://www.w3.org/1999/xlink" xml:space="preserve" style="fill-rule:evenodd;clip-rule:evenodd;"><g><text x="0.47px" y="91px" style="font-family:'LucidaGrande-Bold', 'Lucida Grande', sans-serif;font-weight:600;font-size:18px;fill:#fff;">Open Data Day</text><path d="M20,24.889l50,17.778l45,-17.778" style="fill:none;stroke:#999;stroke-width:2px;"/><g><path d="M20.196,9.668l0.195,0.004l0.195,0.006l0.195,0.008l0.193,0.011l0.194,0.014l0.192,0.016l0.192,0.018l0.192,0.021l0.191,0.023l0.19,0.025l0.189,0.028l0.189,0.03l0.187,0.032l0.188,0.035l0.186,0.037l0.186,0.039l0.184,0.042l0.184,0.044l0.183,0.045l0.182,0.049l0.182,0.05l0.18,0.052l0.18,0.055l0.178,0.057l0.178,0.059l0.176,0.061l0.176,0.063l0.174,0.065l0.174,0.067l0.172,0.07l0.172,0.071l0.17,0.073l0.17,0.076l0.168,0.077l0.167,0.079l0.166,0.082l0.164,0.083l0.164,0.085l0.163,0.087l0.161,0.089l0.16,0.091l0.158,0.092l0.158,0.095l0.156,0.096l0.155,0.098l0.154,0.1l0.152,0.102l0.152,0.103l0.149,0.105l0.149,0.107l0.147,0.109l0.146,0.11l0.144,0.112l0.143,0.114l0.141,0.115l0.14,0.117l0.139,0.119l0.137,0.12l0.136,0.122l0.134,0.124l0.133,0.125l0.131,0.127l0.13,0.128l0.128,0.13l0.127,0.131l0.125,0.133l0.124,0.134l0.121,0.136l0.121,0.137l0.118,0.138l0.117,0.141l0.116,0.141l0.114,0.143l0.112,0.144l0.11,0.146l0.109,0.147l0.107,0.149l0.105,0.149l0.103,0.151l0.102,0.153l0.1,0.154l0.098,0.155l0.096,0.156l0.095,0.157l0.092,0.159l0.091,0.16l0.089,0.161l0.087,0.163l0.085,0.163l0.083,0.165l0.082,0.166l0.079,0.167l0.077,0.168l0.075,0.17l0.074,0.17l0.071,0.171l0.07,0.173l0.067,0.173l0.065,0.175l0.063,0.176l0.061,0.176l0.059,0.178l0.057,0.178l0.054,0.18l0.053,0.18l0.05,0.181l0.048,0.183l0.046,0.183l0.044,0.184l0.042,0.184l0.039,0.186l0.037,0.186l0.034,0.187l0.033,0.188l0.03,0.189l0.028,0.189l0.025,0.19l0.023,0.191l0.021,0.192l0.018,0.191l0.016,0.193l0.013,0.193l0.012,0.194l0.008,0.195l0.006,0.195l0.004,0.195l0.001,0.196l-0.001,0.196l-0.004,0.195l-0.006,0.195l-0.008,0.195l-0.012,0.193l-0.013,0.194l-0.016,0.192l-0.018,0.192l-0.021,0.192l-0.023,0.19l-0.025,0.19l-0.028,0.19l-0.03,0.188l-0.033,0.188l-0.034,0.187l-0.037,0.187l-0.039,0.185l-0.042,0.185l-0.044,0.184l-0.046,0.183l-0.048,0.182l-0.05,0.182l-0.053,0.18l-0.054,0.179l-0.057,0.179l-0.059,0.178l-0.061,0.176l-0.063,0.176l-0.065,0.174l-0.067,0.174l-0.07,0.172l-0.071,0.172l-0.074,0.17l-0.075,0.169l-0.077,0.169l-0.079,0.167l-0.082,0.166l-0.083,0.164l-0.085,0.164l-0.087,0.162l-0.089,0.162l-0.091,0.16l-0.092,0.158l-0.095,0.158l-0.096,0.156l-0.098,0.155l-0.1,0.154l-0.102,0.152l-0.103,0.151l-0.105,0.15l-0.107,0.149l-0.109,0.147l-0.11,0.145l-0.112,0.145l-0.114,0.143l-0.116,0.141l-0.117,0.14l-0.118,0.139l-0.121,0.137l-0.121,0.136l-0.124,0.134l-0.125,0.133l-0.127,0.131l-0.128,0.13l-0.13,0.128l-0.131,0.127l-0.133,0.125l-0.134,0.123l-0.136,0.122l-0.137,0.121l-0.139,0.118l-0.14,0.117l-0.141,0.116l-0.143,0.114l-0.144,0.112l-0.146,0.11l-0.147,0.109l-0.149,0.107l-0.149,0.105l-0.152,0.103l-0.152,0.102l-0.154,0.1l-0.155,0.098l-0.156,0.096l-0.158,0.095l-0.158,0.092l-0.16,0.091l-0.161,0.089l-0.163,0.087l-0.164,0.085l-0.164,0.083l-0.166,0.081l-0.167,0.08l-0.168,0.077l-0.17,0.075l-0.17,0.074l-0.172,0.071l-0.172,0.069l-0.174,0.068l-0.174,0.065l-0.176,0.063l-0.176,0.061l-0.178,0.059l-0.178,0.057l-0.18,0.054l-0.18,0.053l-0.182,0.05l-0.182,0.048l-0.183,0.046l-0.184,0.044l-0.184,0.041l-0.186,0.04l-0.186,0.037l-0.188,0.034l-0.187,0.033l-0.189,0.03l-0.189,0.027l-0.19,0.026l-0.191,0.023l-0.192,0.021l-0.192,0.018l-0.192,0.016l-0.194,0.013l-0.193,0.011l-0.195,0.009l-0.195,0.006l-0.195,0.004l-0.196,0.001l-0.196,-0.001l-0.195,-0.004l-0.195,-0.006l-0.195,-0.009l-0.193,-0.011l-0.194,-0.013l-0.192,-0.016l-0.192,-0.018l-0.192,-0.021l-0.191,-0.023l-0.19,-0.026l-0.189,-0.027l-0.189,-0.03l-0.187,-0.033l-0.188,-0.034l-0.186,-0.037l-0.186,-0.04l-0.184,-0.041l-0.184,-0.044l-0.183,-0.046l-0.182,-0.048l-0.182,-0.05l-0.18,-0.053l-0.18,-0.054l-0.178,-0.057l-0.178,-0.059l-0.176,-0.061l-0.176,-0.063l-0.174,-0.065l-0.174,-0.068l-0.172,-0.069l-0.172,-0.071l-0.17,-0.074l-0.17,-0.075l-0.168,-0.077l-0.167,-0.08l-0.166,-0.081l-0.164,-0.083l-0.164,-0.085l-0.163,-0.087l-0.161,-0.089l-0.16,-0.091l-0.158,-0.092l-0.158,-0.095l-0.156,-0.096l-0.155,-0.098l-0.154,-0.1l-0.152,-0.102l-0.152,-0.103l-0.149,-0.105l-0.149,-0.107l-0.147,-0.109l-0.146,-0.11l-0.144,-0.113l-0.143,-0.113l-0.141,-0.116l-0.14,-0.117l-0.139,-0.118l-0.137,-0.121l-0.136,-0.122l-0.134,-0.123l-0.133,-0.125l-0.131,-0.127l-0.13,-0.128l-0.128,-0.13l-0.127,-0.131l-0.125,-0.133l-0.124,-0.134l-0.121,-0.136l-0.121,-0.137l-0.118,-0.139l-0.117,-0.14l-0.116,-0.141l-0.114,-0.143l-0.112,-0.145l-0.11,-0.145l-0.109,-0.147l-0.107,-0.149l-0.105,-0.15l-0.103,-0.151l-0.102,-0.152l-0.1,-0.154l-0.098,-0.155l-0.096,-0.156l-0.095,-0.158l-0.092,-0.158l-0.091,-0.16l-0.089,-0.162l-0.087,-0.162l-0.085,-0.164l-0.083,-0.164l-0.082,-0.166l-0.079,-0.167l-0.077,-0.169l-0.076,-0.169l-0.073,-0.17l-0.071,-0.172l-0.07,-0.172l-0.067,-0.174l-0.065,-0.174l-0.063,-0.176l-0.061,-0.176l-0.059,-0.178l-0.057,-0.179l-0.054,-0.179l-0.053,-0.18l-0.05,-0.182l-0.048,-0.182l-0.046,-0.183l-0.044,-0.184l-0.042,-0.185l-0.039,-0.185l-0.037,-0.187l-0.034,-0.187l-0.033,-0.188l-0.03,-0.188l-0.028,-0.19l-0.025,-0.19l-0.023,-0.19l-0.021,-0.192l-0.018,-0.192l-0.016,-0.192l-0.013,-0.194l-0.012,-0.193l-0.008,-0.195l-0.006,-0.195l-0.004,-0.195l-0.001,-0.196l0.001,-0.196l0.004,-0.195l0.006,-0.195l0.008,-0.195l0.012,-0.194l0.013,-0.193l0.016,-0.192l0.018,-0.193l0.021,-0.191l0.023,-0.191l0.025,-0.19l0.028,-0.189l0.03,-0.189l0.033,-0.188l0.034,-0.187l0.037,-0.186l0.039,-0.186l0.042,-0.184l0.044,-0.184l0.046,-0.183l0.048,-0.183l0.05,-0.181l0.053,-0.18l0.054,-0.18l0.057,-0.178l0.059,-0.178l0.061,-0.176l0.063,-0.176l0.065,-0.175l0.067,-0.173l0.07,-0.173l0.071,-0.171l0.073,-0.17l0.076,-0.17l0.077,-0.168l0.079,-0.167l0.082,-0.166l0.083,-0.165l0.085,-0.163l0.087,-0.163l0.089,-0.161l0.091,-0.16l0.092,-0.159l0.095,-0.157l0.096,-0.156l0.098,-0.155l0.1,-0.154l0.102,-0.153l0.103,-0.151l0.105,-0.149l0.107,-0.149l0.109,-0.147l0.11,-0.146l0.112,-0.144l0.114,-0.143l0.116,-0.141l0.117,-0.141l0.118,-0.138l0.121,-0.137l0.121,-0.136l0.124,-0.134l0.125,-0.133l0.127,-0.131l0.128,-0.13l0.13,-0.128l0.131,-0.127l0.133,-0.125l0.134,-0.124l0.136,-0.122l0.137,-0.12l0.139,-0.119l0.14,-0.117l0.141,-0.115l0.143,-0.114l0.144,-0.112l0.146,-0.11l0.147,-0.109l0.149,-0.107l0.149,-0.105l0.152,-0.103l0.152,-0.102l0.154,-0.1l0.155,-0.098l0.156,-0.096l0.158,-0.095l0.158,-0.092l0.16,-0.091l0.161,-0.089l0.163,-0.087l0.164,-0.085l0.164,-0.083l0.166,-0.082l0.167,-0.079l0.168,-0.077l0.17,-0.076l0.17,-0.073l0.172,-0.071l0.172,-0.07l0.174,-0.067l0.174,-0.065l0.176,-0.063l0.176,-0.061l0.178,-0.059l0.178,-0.057l0.18,-0.055l0.18,-0.052l0.182,-0.05l0.182,-0.049l0.183,-0.045l0.184,-0.044l0.184,-0.042l0.186,-0.039l0.186,-0.037l0.188,-0.035l0.187,-0.032l0.189,-0.03l0.189,-0.028l0.19,-0.025l0.191,-0.023l0.192,-0.021l0.192,-0.018l0.192,-0.016l0.194,-0.014l0.193,-0.011l0.195,-0.008l0.195,-0.006l0.195,-0.004l0.196,-0.001l0.196,0.001Zm-0.316,5.999l-0.119,0.003l-0.119,0.004l-0.118,0.005l-0.118,0.007l-0.118,0.008l-0.117,0.009l-0.116,0.011l-0.116,0.013l-0.116,0.014l-0.115,0.015l-0.115,0.017l-0.114,0.018l-0.113,0.02l-0.113,0.021l-0.113,0.022l-0.112,0.024l-0.111,0.025l-0.111,0.026l-0.111,0.028l-0.11,0.029l-0.109,0.03l-0.109,0.032l-0.108,0.033l-0.108,0.034l-0.107,0.036l-0.106,0.037l-0.106,0.038l-0.106,0.039l-0.104,0.041l-0.105,0.041l-0.103,0.044l-0.103,0.044l-0.102,0.045l-0.102,0.047l-0.101,0.048l-0.1,0.049l-0.1,0.05l-0.099,0.052l-0.098,0.053l-0.098,0.053l-0.097,0.055l-0.096,0.057l-0.095,0.057l-0.095,0.058l-0.094,0.06l-0.093,0.06l-0.093,0.062l-0.091,0.063l-0.091,0.063l-0.09,0.065l-0.09,0.066l-0.088,0.067l-0.088,0.068l-0.087,0.07l-0.086,0.07l-0.085,0.071l-0.084,0.072l-0.084,0.073l-0.082,0.074l-0.082,0.075l-0.081,0.077l-0.079,0.077l-0.079,0.078l-0.078,0.078l-0.077,0.08l-0.076,0.081l-0.076,0.082l-0.074,0.082l-0.073,0.084l-0.072,0.084l-0.071,0.085l-0.07,0.086l-0.069,0.087l-0.068,0.088l-0.068,0.088l-0.065,0.089l-0.065,0.091l-0.064,0.09l-0.063,0.092l-0.062,0.093l-0.06,0.093l-0.06,0.094l-0.058,0.095l-0.057,0.095l-0.057,0.096l-0.054,0.097l-0.054,0.098l-0.053,0.098l-0.051,0.099l-0.051,0.1l-0.049,0.1l-0.048,0.101l-0.047,0.102l-0.045,0.102l-0.044,0.103l-0.043,0.103l-0.042,0.104l-0.041,0.105l-0.039,0.106l-0.038,0.105l-0.037,0.107l-0.036,0.107l-0.034,0.108l-0.033,0.108l-0.032,0.109l-0.03,0.109l-0.029,0.11l-0.028,0.111l-0.026,0.111l-0.025,0.111l-0.024,0.112l-0.022,0.113l-0.021,0.113l-0.02,0.113l-0.018,0.114l-0.017,0.115l-0.015,0.115l-0.014,0.115l-0.012,0.116l-0.012,0.117l-0.009,0.117l-0.008,0.117l-0.007,0.118l-0.005,0.119l-0.004,0.119l-0.002,0.119l-0.001,0.12l0.001,0.12l0.002,0.119l0.004,0.119l0.005,0.118l0.007,0.118l0.008,0.118l0.009,0.117l0.012,0.116l0.012,0.116l0.014,0.116l0.015,0.115l0.017,0.115l0.018,0.114l0.02,0.113l0.021,0.113l0.022,0.113l0.024,0.112l0.025,0.111l0.026,0.111l0.028,0.111l0.029,0.11l0.03,0.109l0.032,0.109l0.033,0.108l0.034,0.108l0.036,0.107l0.037,0.106l0.038,0.106l0.039,0.106l0.041,0.104l0.042,0.105l0.043,0.103l0.044,0.103l0.045,0.102l0.047,0.102l0.048,0.101l0.049,0.1l0.051,0.1l0.051,0.099l0.053,0.098l0.054,0.098l0.054,0.097l0.057,0.096l0.057,0.095l0.058,0.095l0.06,0.094l0.06,0.093l0.062,0.093l0.063,0.091l0.064,0.091l0.065,0.09l0.065,0.09l0.068,0.088l0.068,0.088l0.069,0.087l0.07,0.086l0.071,0.085l0.072,0.084l0.073,0.084l0.074,0.082l0.076,0.082l0.076,0.081l0.077,0.079l0.078,0.079l0.079,0.078l0.079,0.077l0.081,0.076l0.082,0.075l0.082,0.075l0.084,0.073l0.084,0.072l0.085,0.071l0.086,0.07l0.087,0.069l0.088,0.068l0.088,0.067l0.09,0.066l0.09,0.065l0.091,0.064l0.091,0.063l0.093,0.062l0.093,0.06l0.094,0.06l0.095,0.058l0.095,0.057l0.096,0.056l0.097,0.055l0.098,0.054l0.098,0.053l0.099,0.051l0.1,0.051l0.1,0.049l0.101,0.048l0.102,0.046l0.102,0.046l0.103,0.044l0.103,0.043l0.105,0.042l0.104,0.041l0.106,0.039l0.106,0.038l0.106,0.037l0.107,0.036l0.108,0.034l0.108,0.033l0.109,0.031l0.109,0.031l0.11,0.029l0.111,0.027l0.111,0.027l0.111,0.025l0.112,0.024l0.113,0.022l0.113,0.021l0.113,0.019l0.114,0.019l0.115,0.016l0.115,0.016l0.116,0.014l0.116,0.012l0.116,0.011l0.117,0.01l0.118,0.008l0.117,0.007l0.119,0.005l0.119,0.004l0.119,0.002l0.12,0.001l0.12,-0.001l0.119,-0.002l0.119,-0.004l0.118,-0.005l0.118,-0.007l0.118,-0.008l0.117,-0.01l0.116,-0.011l0.116,-0.012l0.116,-0.014l0.115,-0.016l0.115,-0.016l0.114,-0.019l0.113,-0.019l0.113,-0.021l0.113,-0.022l0.112,-0.024l0.111,-0.025l0.111,-0.027l0.111,-0.027l0.11,-0.029l0.109,-0.031l0.109,-0.031l0.108,-0.033l0.108,-0.034l0.107,-0.036l0.106,-0.037l0.106,-0.038l0.106,-0.039l0.104,-0.041l0.105,-0.042l0.103,-0.043l0.103,-0.044l0.102,-0.046l0.102,-0.046l0.101,-0.048l0.1,-0.049l0.1,-0.051l0.099,-0.051l0.098,-0.053l0.098,-0.054l0.097,-0.055l0.096,-0.056l0.095,-0.057l0.095,-0.058l0.094,-0.06l0.093,-0.06l0.093,-0.062l0.091,-0.063l0.091,-0.064l0.09,-0.065l0.09,-0.066l0.088,-0.067l0.088,-0.068l0.087,-0.069l0.086,-0.07l0.085,-0.071l0.084,-0.072l0.084,-0.073l0.082,-0.075l0.082,-0.075l0.081,-0.076l0.079,-0.077l0.079,-0.078l0.078,-0.079l0.077,-0.079l0.076,-0.081l0.076,-0.082l0.074,-0.082l0.073,-0.084l0.072,-0.084l0.071,-0.085l0.07,-0.086l0.069,-0.087l0.068,-0.088l0.068,-0.088l0.065,-0.09l0.065,-0.09l0.064,-0.091l0.063,-0.091l0.062,-0.093l0.06,-0.093l0.06,-0.094l0.058,-0.095l0.057,-0.095l0.057,-0.096l0.054,-0.097l0.054,-0.098l0.053,-0.098l0.051,-0.099l0.051,-0.1l0.049,-0.1l0.048,-0.101l0.047,-0.102l0.045,-0.102l0.044,-0.103l0.043,-0.103l0.042,-0.105l0.041,-0.104l0.039,-0.106l0.038,-0.106l0.037,-0.106l0.036,-0.107l0.034,-0.108l0.033,-0.108l0.032,-0.109l0.03,-0.109l0.029,-0.11l0.028,-0.111l0.026,-0.111l0.025,-0.111l0.024,-0.112l0.022,-0.113l0.021,-0.113l0.02,-0.113l0.018,-0.114l0.017,-0.115l0.015,-0.115l0.014,-0.116l0.012,-0.116l0.012,-0.116l0.009,-0.117l0.008,-0.118l0.007,-0.118l0.005,-0.118l0.004,-0.119l0.002,-0.119l0.001,-0.12l-0.001,-0.12l-0.002,-0.119l-0.004,-0.119l-0.005,-0.119l-0.007,-0.118l-0.008,-0.117l-0.009,-0.117l-0.012,-0.117l-0.012,-0.116l-0.014,-0.115l-0.015,-0.115l-0.017,-0.115l-0.018,-0.114l-0.02,-0.113l-0.021,-0.113l-0.022,-0.113l-0.024,-0.112l-0.025,-0.111l-0.026,-0.111l-0.028,-0.111l-0.029,-0.11l-0.03,-0.109l-0.032,-0.109l-0.033,-0.108l-0.034,-0.108l-0.036,-0.107l-0.037,-0.107l-0.038,-0.106l-0.039,-0.105l-0.041,-0.105l-0.042,-0.104l-0.043,-0.103l-0.044,-0.103l-0.045,-0.102l-0.047,-0.102l-0.048,-0.101l-0.049,-0.1l-0.051,-0.1l-0.051,-0.099l-0.053,-0.098l-0.054,-0.098l-0.054,-0.097l-0.057,-0.096l-0.057,-0.095l-0.058,-0.095l-0.06,-0.094l-0.06,-0.093l-0.062,-0.093l-0.063,-0.092l-0.064,-0.09l-0.065,-0.091l-0.065,-0.089l-0.068,-0.088l-0.068,-0.088l-0.069,-0.087l-0.07,-0.086l-0.071,-0.085l-0.072,-0.084l-0.073,-0.084l-0.074,-0.082l-0.076,-0.082l-0.076,-0.081l-0.077,-0.08l-0.078,-0.078l-0.079,-0.078l-0.079,-0.077l-0.081,-0.077l-0.082,-0.075l-0.082,-0.074l-0.084,-0.073l-0.084,-0.072l-0.085,-0.071l-0.086,-0.07l-0.087,-0.069l-0.088,-0.069l-0.088,-0.067l-0.09,-0.066l-0.09,-0.065l-0.091,-0.063l-0.091,-0.063l-0.093,-0.062l-0.093,-0.06l-0.094,-0.06l-0.095,-0.058l-0.095,-0.057l-0.096,-0.057l-0.097,-0.055l-0.098,-0.053l-0.098,-0.053l-0.099,-0.052l-0.1,-0.05l-0.1,-0.049l-0.101,-0.048l-0.102,-0.047l-0.102,-0.045l-0.103,-0.044l-0.103,-0.044l-0.105,-0.041l-0.104,-0.041l-0.106,-0.039l-0.106,-0.038l-0.106,-0.037l-0.107,-0.036l-0.108,-0.034l-0.108,-0.033l-0.109,-0.032l-0.109,-0.03l-0.11,-0.029l-0.111,-0.028l-0.111,-0.026l-0.111,-0.025l-0.112,-0.024l-0.113,-0.022l-0.113,-0.021l-0.113,-0.02l-0.114,-0.018l-0.115,-0.017l-0.115,-0.015l-0.116,-0.014l-0.116,-0.013l-0.116,-0.011l-0.117,-0.009l-0.118,-0.008l-0.118,-0.007l-0.118,-0.005l-0.119,-0.004l-0.119,-0.003l-0.12,0l-0.12,0Z" style="fill:#ff8000;"/><circle cx="20" cy="24.889" r="4" style="fill:#ff8000;"/></g><g><path d="M95.393,58.827l-40.786,0l20.393,-35.321l20.393,35.321Zm-30.394,-6l20.002,0l-10.001,-17.321l-10.001,17.321Z" style="fill:#00bfff;"/><circle cx="70" cy="42.667" r="4" style="fill:#00bfff;"/></g><g><path d="M146.082,45.977l-52.164,0l26.082,-45.176l26.082,45.176Zm-41.772,-6l31.38,0l-15.69,-27.176l-15.69,27.176Z" style="fill:#ff8000;"/><circle cx="115" cy="24.889" r="4" style="fill:#ff8000;"/></g></g></svg>